PathFileType	4	(X/Y/Z)	3_coords_data.trc
DataRate	CameraRate	NumFrames	NumMarkers	Units	OrigDataRate	OrigDataStartFrame	OrigNumFrames
30.0	30.0	8	21	m	30.0	11	81
Frame#	Time	THUMB_TIP	THUMB_IP	THUMB_MCP	THUMB_CMC	INDEX_TIP	INDEX_DIP	INDEX_PIP	INDEX_MCP	MIDDLE_TIP	MIDDLE_DIP	MIDDLE_PIP	MIDDLE_MCP	RING_TIP	RING_DIP	RING_PIP	RING_MCP	PINKY_TIP	PINKY_DIP	PINKY_PIP	PINKY_MCP	WRIST
X1	Y1	Z1	X2	Y2	Z2	X3	Y3	Z3	X4	Y4	Z4	X5	Y5	Z5	X6	Y6	Z6	X7	Y7	Z7	X8	Y8	Z8	X9	Y9	Z9	X10	Y10	Z10	X11	Y11	Z11	X12	Y12	Z12	X13	Y13	Z13	X14	Y14	Z14	X15	Y15	Z15	X16	Y16	Z16	X17	Y17	Z17	X18	Y18	Z18	X19	Y19	Z19	X20	Y20	Z20	X21	Y21	Z21
9	0.33333333333333187	0.48861856254689806	-0.013761899294940094	-0.17255960545304233	0.48785576121925533	-0.016146305468159206	-0.14971813568125092	0.4797413502107739	-0.023357220000259415	-0.12054659054568806	0.47687367800861813	-0.027525888193611014	-0.07622629427372352	0.50437957414928	-0.025593620121566518	-0.09715715093115873	0.5221865812521258	-0.02539107426574516	-0.10045403934532854	0.5379178259371437	-0.01116134450144679	-0.11394672493772051	0.5014456434032825	0.010174346330967476	-0.11925749624896592	0.505218390640255	-0.021394822312932216	-0.08241969726333742	0.5233255075130329	-0.021565915057042973	-0.08209868974243517	0.5428820633583671	-0.003867674363711826	-0.09449719569392961	0.5079064002393132	0.02305508191693767	-0.1014265610786671	0.5066822648098864	-0.007638357053059375	-0.07140605337739414	0.5245808193982457	-0.007376463486044926	-0.06926755965351339	0.5422517928511522	0.008663490957819264	-0.0763834951271839	0.5106110860401976	0.033083968050915735	-0.0824848724347077	0.5069698354388971	-0.005936772510626742	-0.05730847042557208	0.5237445060713203	-0.005656839965649363	-0.053912581301354345	0.5358973460999996	0.01126115943589645	-0.05653970796115393	0.5083056089388636	0.03407922310734979	-0.06088889888778437	0.4622830810018608	-0.023011742144276925	-0.051989820119430985
10	0.3666666666666651	0.4888080745863108	-0.01360306726554672	-0.1725008399193707	0.4880055748813369	-0.016017708001769937	-0.14966390701807053	0.4798082320304301	-0.023300156662328098	-0.12053334726218828	0.47688369661775154	-0.027519096475797866	-0.07622152446656949	0.5043963457530091	-0.0254868757953719	-0.0971362510754551	0.5222003251459264	-0.025350700440906593	-0.10045284180230224	0.5379438664122409	-0.01110047073754894	-0.11390950167009278	0.5014642217341275	0.010221708044077182	-0.11922328658886511	0.5052705929601665	-0.021267396402559924	-0.08247842434787289	0.5233766493311612	-0.021475090475040703	-0.08212123271496785	0.5429311086801447	-0.0037555027834146326	-0.09449252535590602	0.5079054789409514	0.023115215794668964	-0.1013713090761848	0.5067864889335566	-0.007643741078913524	-0.07138126493571584	0.5246820053778942	-0.007370654337605642	-0.06921887856363385	0.5423003333531269	0.008733028906263707	-0.0763214051801453	0.5106246874411317	0.033110059144216775	-0.08241522884315244	0.5069494408470137	-0.005810999582677168	-0.057281137094822965	0.5237223389590916	-0.0056281633361718875	-0.05386991153370657	0.5358634403261012	0.011299670561586872	-0.056487948226704554	0.5082701101340165	0.03411609396344384	-0.06083563761967892	0.462283081001861	-0.023011742144276925	-0.051989820119430985
11	0.39999999999999825	0.48893925362420576	-0.013502890384028632	-0.17246753502158918	0.48810625606007485	-0.015936333877883513	-0.14963369023319728	0.4798701486454384	-0.023246415588880076	-0.12052099128526184	0.4768876779419221	-0.027522440175734575	-0.07621850284233933	0.5044410387367294	-0.025405742048044133	-0.09713610752880414	0.5222528952564106	-0.025279404560901497	-0.10041052444813986	0.5380032000435788	-0.011029081503030835	-0.11385916842653532	0.5015011695882228	0.010251202465275111	-0.11918714936348751	0.5053391852592505	-0.02115504181266792	-0.08248878078703259	0.5234427580798094	-0.02146225088822251	-0.08208101404658708	0.5429870424101719	-0.00371624338221066	-0.09443049653009694	0.5079485550580565	0.02313731583405948	-0.1013108077508143	0.5068956932916165	-0.007648678875141313	-0.07134046784415793	0.5247870527163958	-0.007366745512930151	-0.06914507004133597	0.5423311543285114	0.008820803781866782	-0.07624068315454091	0.51062203706437	0.033152767862257904	-0.08234053891672899	0.5068600058707936	-0.005693132281597402	-0.05724363459554882	0.5236289785590511	-0.005527975971050925	-0.05381226775803882	0.5358111782475041	0.011368874719846267	-0.05643952230988203	0.5082077254834096	0.03417657166554333	-0.06076870312542304	0.4622830810018609	-0.023011742144276925	-0.051989820119430985
12	0.43333333333333146	0.4890888924371454	-0.013451765377643587	-0.1724411591728025	0.48823084890366564	-0.015889357576622798	-0.14960868437119312	0.4799471842224817	-0.023223221860453336	-0.12051546636224708	0.4768889759325736	-0.027513016250157785	-0.07621947302030252	0.5045935646864818	-0.025264648549724322	-0.09710334423283273	0.5224156914482677	-0.025304672257664862	-0.1003236230700828	0.5381318286889667	-0.011015676110964878	-0.11377120472445845	0.501619446324851	0.010240829712165778	-0.11912311917517815	0.5053411493228773	-0.021123598875408933	-0.08241203883516679	0.5234456624502827	-0.02139160287369335	-0.08201862013135619	0.5430104895688249	-0.0036721760941559323	-0.09437374070649313	0.507971345672198	0.02318215769980786	-0.10124768225947833	0.5069778022337811	-0.007614531611648712	-0.07124718265491048	0.524869671364231	-0.0073178885088655	-0.06905788553290404	0.5423748695000041	0.008915354249423801	-0.07614518733103404	0.5106274651592304	0.033195363144845336	-0.08225291355784548	0.5067799875588235	-0.005516278729509105	-0.05718601669510737	0.5235443599277203	-0.00544148714616588	-0.05372910690513166	0.5357723845540241	0.011421802465638953	-0.0563591061840103	0.5081638931771136	0.03422653180675517	-0.06067175902993871	0.462283081001861	-0.023011742144276925	-0.051989820119430985
13	0.4666666666666647	0.4892035349373872	-0.013427209118715533	-0.1724055346748402	0.4883294292103355	-0.015865003993926763	-0.14957369078687688	0.48000218469081113	-0.023218396703621247	-0.1204978483335779	0.47691107342106265	-0.027518430095481272	-0.07620513173200871	0.5046377830935598	-0.025171199789767007	-0.09708119277024696	0.5224654752194906	-0.025243405890093995	-0.10026995110886339	0.5381697283982033	-0.010963704356523385	-0.11374126838710452	0.5016452567163744	0.010272211081497673	-0.11909243254759366	0.5054208362517414	-0.02112680871428596	-0.08244889386554699	0.5235232080550078	-0.021344493692842637	-0.08194219045484818	0.5430757587715005	-0.003637204603785249	-0.09433409198752413	0.5080147414442718	0.02319080755000763	-0.10119927580558136	0.5071041094083198	-0.007648389056892135	-0.07116637501002432	0.5249966587134628	-0.007329698141667063	-0.0689857522862174	0.5424208429804038	0.008991502772577431	-0.07607067870422235	0.5106364282015643	0.03321889980825149	-0.08219481489167813	0.506693412182236	-0.005491443698381282	-0.05713397289048705	0.5234591927433395	-0.005384522056465668	-0.05368474544953539	0.53568473056128	0.011485381825710683	-0.05628370429265683	0.5080855256274555	0.034297889778165946	-0.06061461862336415	0.4622830810018608	-0.023011742144276925	-0.051989820119430985
14	0.4999999999999978	0.4892651915320049	-0.013393127400226135	-0.17241849306572898	0.4883687505981291	-0.015823197176648818	-0.1495866916796405	0.48001951826969746	-0.023176123173691776	-0.12051703741943509	0.47687133283428107	-0.027506540226457266	-0.07623130137933587	0.5046342959826292	-0.025267277056018833	-0.096994557895133	0.5224582642403879	-0.02522290926302284	-0.10020457145357053	0.5381607913375852	-0.010953675647719097	-0.11368898644991599	0.5016597593402192	0.010317086459215807	-0.11906164282432297	0.5053834362000468	-0.021194986247881298	-0.08248199305877435	0.5234844720699463	-0.02126005270329623	-0.08189185172571034	0.5430526272763777	-0.003576344754576355	-0.09429279221429421	0.5079888024271184	0.023244061230409008	-0.10117333948475449	0.5070629422260258	-0.007544792705992065	-0.0711122857400115	0.5249523587211308	-0.007255493023642812	-0.06890206331716331	0.5423643831703979	0.009073938306231155	-0.07599791111859322	0.5105780231972945	0.033290436617923136	-0.08215496911573139	0.5066473716876828	-0.005632046537722313	-0.05701679454351294	0.5234210906814236	-0.005386786463188242	-0.05361353160702742	0.5356073225842307	0.011515014834816317	-0.056189746639546234	0.5080319820965672	0.03434868128348151	-0.06056098496529916	0.4622830810018609	-0.023011742144276925	-0.051989820119430985
15	0.533333333333331	0.48938463758844	-0.013397472254475962	-0.1724165076223383	0.48844504423918567	-0.015811553461155925	-0.14958474517907527	0.48010671974966945	-0.02318668005304958	-0.12051758411265745	0.4768588170130017	-0.02750940376614186	-0.07623829789987602	0.5047045314527913	-0.02526659301573353	-0.096889482466742	0.5225228742457063	-0.025300887639535197	-0.10013069890396903	0.5382115348682439	-0.011006471663511763	-0.11360457855220851	0.5017411786774517	0.010306233164977918	-0.11901917236988485	0.5053920258896413	-0.021250166660402914	-0.08224843061761156	0.5234975612050153	-0.021251373526151918	-0.081813011868339	0.5430912358129316	-0.0036048762094641473	-0.09422665749769532	0.5080426126059667	0.023227177847235936	-0.10113916843038356	0.5069707205003023	-0.007488641029637311	-0.07107943477733991	0.5248579656711038	-0.007188984788218833	-0.06885307758752912	0.5423469830044937	0.009056521243040239	-0.0759522173594106	0.510585731751682	0.033303822162252195	-0.08211761685895358	0.5066631119476904	-0.0057047465147639365	-0.056949892772775734	0.5234355362012153	-0.005363613380120147	-0.05354850881264739	0.5356657331763168	0.011502575762148193	-0.05614965563038887	0.5080762421678796	0.03431999630590654	-0.06051643437731802	0.462283081001861	-0.023011742144276925	-0.051989820119430985
16	0.5666666666666642	0.4895207384203225	-0.013415507599665477	-0.1723904706623023	0.4885393902955577	-0.01582074346001483	-0.14955953120913684	0.48014814657509663	-0.023191408511313516	-0.12050647069005571	0.47686858671305044	-0.027521279850812874	-0.07623021631714566	0.5047936922877099	-0.025304807714154998	-0.09680822139511441	0.5226086324265921	-0.02537251745938085	-0.10006756538408601	0.5382968010493238	-0.011067504630854486	-0.11353076731529216	0.5018446774659296	0.010268321497175159	-0.11897698652640087	0.5054248464592145	-0.02137113865740592	-0.08211347397646296	0.5235318690453017	-0.021232123554606575	-0.08177228800354341	0.5431295297660264	-0.0035938564178288335	-0.09419133694808979	0.5080747412115794	0.023229258360234817	-0.10110727752084203	0.5070348959414998	-0.007482308170533747	-0.07103817874212559	0.524921902027374	-0.007231652535707123	-0.06880385892691854	0.5423827597980238	0.00904747696219832	-0.07589528809906532	0.5106244776112874	0.0332965409147532	-0.0820690425461208	0.5067056236184888	-0.005859805071812052	-0.056854377644550924	0.5234848381153757	-0.005393716925043313	-0.05350165894073755	0.535718828965454	0.011471367750776729	-0.05609210402944742	0.5081281384270041	0.034286041243111576	-0.06046565179409502	0.4622830810018609	-0.023011742144276925	-0.051989820119430985
